<svg width="400" height="82" viewBox="0 0 400 82" fill="none" xmlns="http://www.w3.org/2000/svg">
<rect y="6" width="80" height="76" rx="10" fill="#26C45C"/>
<path d="M63.5012 56.0781C58.631 61.4411 49.7501 69.3136 38.8179 70.345C22.0414 71.9264 13 56.2615 13 56.2615C13 56.2615 21.4111 74.0807 38.2105 73.3817C49.1771 72.9233 58.2643 63.8361 63.421 58.7252L63.5012 56.0781Z" fill="white"/>
<path d="M66.4046 49.5245L64.892 37.6641C63.4383 41.3341 61.6024 44.8409 59.4144 48.1264C55.5985 53.8561 49.7313 60.5025 41.641 63.333C25.7469 68.9136 13.1875 55.8959 13.1875 55.8959C13.1875 55.8959 22.9967 71.0909 39.67 68.6845C50.5334 67.1145 59.0133 58.818 63.62 53.2144L67.4359 57.7981L66.4046 49.5245Z" fill="white"/>
<path d="M32.2513 42.6475L23.5078 47.6208V61.8533C26.313 62.8743 29.2667 63.4279 32.2513 63.492V42.6475Z" fill="white"/>
<path d="M43.4039 60.9833V28.3242L34.6719 34.0539V63.4012C37.2122 63.1777 39.7021 62.5591 42.0517 61.5677C42.5101 61.3729 42.9684 61.1552 43.4039 60.9833Z" fill="white"/>
<path d="M54.7591 51.3803V14L46.0156 19.2713V59.4821C49.3615 57.2879 52.3167 54.5495 54.7591 51.3803Z" fill="white"/>
<path d="M107.568 51.768C104.539 51.768 101.744 51.2133 99.184 50.104C96.6667 48.952 94.5973 47.3307 92.976 45.24L98.736 38.328C99.9733 39.9493 101.275 41.1867 102.64 42.04C104.005 42.8507 105.477 43.256 107.056 43.256C111.28 43.256 113.392 40.7813 113.392 35.832V14.52H97.648V6.2H123.696V35.256C123.696 40.8027 122.331 44.9413 119.6 47.672C116.869 50.4027 112.859 51.768 107.568 51.768ZM154.353 51V44.28L153.713 42.808V30.776C153.713 28.6427 153.052 26.9787 151.729 25.784C150.449 24.5893 148.465 23.992 145.777 23.992C143.942 23.992 142.129 24.2907 140.337 24.888C138.588 25.4427 137.094 26.2107 135.857 27.192L132.273 20.216C134.15 18.8933 136.412 17.8693 139.057 17.144C141.702 16.4187 144.39 16.056 147.121 16.056C152.369 16.056 156.444 17.2933 159.345 19.768C162.246 22.2427 163.697 26.104 163.697 31.352V51H154.353ZM143.857 51.512C141.169 51.512 138.865 51.064 136.945 50.168C135.025 49.2293 133.553 47.9707 132.529 46.392C131.505 44.8133 130.993 43.0427 130.993 41.08C130.993 39.032 131.484 37.24 132.465 35.704C133.489 34.168 135.089 32.9733 137.265 32.12C139.441 31.224 142.278 30.776 145.777 30.776H154.929V36.6H146.865C144.518 36.6 142.897 36.984 142.001 37.752C141.148 38.52 140.721 39.48 140.721 40.632C140.721 41.912 141.212 42.936 142.193 43.704C143.217 44.4293 144.604 44.792 146.353 44.792C148.017 44.792 149.51 44.408 150.833 43.64C152.156 42.8293 153.116 41.656 153.713 40.12L155.249 44.728C154.524 46.9467 153.201 48.632 151.281 49.784C149.361 50.936 146.886 51.512 143.857 51.512ZM193.853 51V44.28L193.213 42.808V30.776C193.213 28.6427 192.552 26.9787 191.229 25.784C189.949 24.5893 187.965 23.992 185.277 23.992C183.442 23.992 181.629 24.2907 179.837 24.888C178.088 25.4427 176.594 26.2107 175.357 27.192L171.773 20.216C173.65 18.8933 175.912 17.8693 178.557 17.144C181.202 16.4187 183.89 16.056 186.621 16.056C191.869 16.056 195.944 17.2933 198.845 19.768C201.746 22.2427 203.197 26.104 203.197 31.352V51H193.853ZM183.357 51.512C180.669 51.512 178.365 51.064 176.445 50.168C174.525 49.2293 173.053 47.9707 172.029 46.392C171.005 44.8133 170.493 43.0427 170.493 41.08C170.493 39.032 170.984 37.24 171.965 35.704C172.989 34.168 174.589 32.9733 176.765 32.12C178.941 31.224 181.778 30.776 185.277 30.776H194.429V36.6H186.365C184.018 36.6 182.397 36.984 181.501 37.752C180.648 38.52 180.221 39.48 180.221 40.632C180.221 41.912 180.712 42.936 181.693 43.704C182.717 44.4293 184.104 44.792 185.853 44.792C187.517 44.792 189.01 44.408 190.333 43.64C191.656 42.8293 192.616 41.656 193.213 40.12L194.749 44.728C194.024 46.9467 192.701 48.632 190.781 49.784C188.861 50.936 186.386 51.512 183.357 51.512ZM223.817 51.512C220.873 51.512 218.036 51.1707 215.305 50.488C212.617 49.7627 210.484 48.8667 208.905 47.8L212.233 40.632C213.812 41.6133 215.668 42.424 217.801 43.064C219.977 43.6613 222.11 43.96 224.201 43.96C226.505 43.96 228.126 43.6827 229.065 43.128C230.046 42.5733 230.537 41.8053 230.537 40.824C230.537 40.0133 230.153 39.416 229.385 39.032C228.66 38.6053 227.678 38.2853 226.441 38.072C225.204 37.8587 223.838 37.6453 222.345 37.432C220.894 37.2187 219.422 36.9413 217.929 36.6C216.436 36.216 215.07 35.6613 213.833 34.936C212.596 34.2107 211.593 33.2293 210.825 31.992C210.1 30.7547 209.737 29.1547 209.737 27.192C209.737 25.016 210.356 23.096 211.593 21.432C212.873 19.768 214.708 18.4667 217.097 17.528C219.486 16.5467 222.345 16.056 225.673 16.056C228.02 16.056 230.409 16.312 232.841 16.824C235.273 17.336 237.3 18.0827 238.921 19.064L235.593 26.168C233.929 25.1867 232.244 24.5253 230.537 24.184C228.873 23.8 227.252 23.608 225.673 23.608C223.454 23.608 221.833 23.9067 220.809 24.504C219.785 25.1013 219.273 25.8693 219.273 26.808C219.273 27.6613 219.636 28.3013 220.361 28.728C221.129 29.1547 222.132 29.496 223.369 29.752C224.606 30.008 225.95 30.2427 227.401 30.456C228.894 30.6267 230.388 30.904 231.881 31.288C233.374 31.672 234.718 32.2267 235.913 32.952C237.15 33.6347 238.153 34.5947 238.921 35.832C239.689 37.0267 240.073 38.6053 240.073 40.568C240.073 42.7013 239.433 44.6 238.153 46.264C236.873 47.8853 235.017 49.1653 232.585 50.104C230.196 51.0427 227.273 51.512 223.817 51.512ZM246.233 51V16.568H255.769V26.296L254.425 23.48C255.449 21.048 257.092 19.2133 259.353 17.976C261.614 16.696 264.366 16.056 267.609 16.056V25.272C267.182 25.2293 266.798 25.208 266.457 25.208C266.116 25.1653 265.753 25.144 265.369 25.144C262.638 25.144 260.42 25.9333 258.713 27.512C257.049 29.048 256.217 31.4587 256.217 34.744V51H246.233ZM273.608 51V16.568H283.592V51H273.608ZM278.6 11.768C276.765 11.768 275.272 11.2347 274.12 10.168C272.968 9.10133 272.392 7.77866 272.392 6.2C272.392 4.62133 272.968 3.29866 274.12 2.232C275.272 1.16533 276.765 0.631996 278.6 0.631996C280.435 0.631996 281.928 1.144 283.08 2.168C284.232 3.14933 284.808 4.42933 284.808 6.008C284.808 7.672 284.232 9.05866 283.08 10.168C281.971 11.2347 280.477 11.768 278.6 11.768ZM306.938 51.512C302.885 51.512 299.727 50.488 297.466 48.44C295.205 46.3493 294.074 43.256 294.074 39.16V8.952H304.058V39.032C304.058 40.4827 304.442 41.6133 305.21 42.424C305.978 43.192 307.023 43.576 308.346 43.576C309.925 43.576 311.269 43.1493 312.378 42.296L315.066 49.336C314.042 50.0613 312.805 50.616 311.354 51C309.946 51.3413 308.474 51.512 306.938 51.512ZM288.762 25.016V17.336H312.634V25.016H288.762ZM341.599 16.056C344.329 16.056 346.761 16.6107 348.895 17.72C351.071 18.7867 352.777 20.4507 354.015 22.712C355.252 24.9307 355.871 27.7893 355.871 31.288V51H345.887V32.824C345.887 30.0507 345.268 28.0027 344.031 26.68C342.836 25.3573 341.129 24.696 338.911 24.696C337.332 24.696 335.903 25.0373 334.623 25.72C333.385 26.36 332.404 27.3627 331.679 28.728C330.996 30.0933 330.655 31.8427 330.655 33.976V51H320.671V3.512H330.655V26.104L328.415 23.224C329.652 20.92 331.423 19.1493 333.727 17.912C336.031 16.6747 338.655 16.056 341.599 16.056ZM386.041 51V44.28L385.401 42.808V30.776C385.401 28.6427 384.739 26.9787 383.417 25.784C382.137 24.5893 380.153 23.992 377.465 23.992C375.63 23.992 373.817 24.2907 372.025 24.888C370.275 25.4427 368.782 26.2107 367.545 27.192L363.961 20.216C365.838 18.8933 368.099 17.8693 370.745 17.144C373.39 16.4187 376.078 16.056 378.809 16.056C384.057 16.056 388.131 17.2933 391.033 19.768C393.934 22.2427 395.385 26.104 395.385 31.352V51H386.041ZM375.545 51.512C372.857 51.512 370.553 51.064 368.633 50.168C366.713 49.2293 365.241 47.9707 364.217 46.392C363.193 44.8133 362.681 43.0427 362.681 41.08C362.681 39.032 363.171 37.24 364.153 35.704C365.177 34.168 366.777 32.9733 368.953 32.12C371.129 31.224 373.966 30.776 377.465 30.776H386.617V36.6H378.553C376.206 36.6 374.585 36.984 373.689 37.752C372.835 38.52 372.409 39.48 372.409 40.632C372.409 41.912 372.899 42.936 373.881 43.704C374.905 44.4293 376.291 44.792 378.041 44.792C379.705 44.792 381.198 44.408 382.521 43.64C383.843 42.8293 384.803 41.656 385.401 40.12L386.937 44.728C386.211 46.9467 384.889 48.632 382.969 49.784C381.049 50.936 378.574 51.512 375.545 51.512Z" fill="white"/>
<path d="M104.071 81.7178C102.803 81.7178 101.63 81.509 100.554 81.0914C99.4775 80.6577 98.5458 80.0553 97.7587 79.2843C96.9717 78.5132 96.3532 77.6057 95.9035 76.5616C95.4698 75.5175 95.2529 74.377 95.2529 73.1402C95.2529 71.9033 95.4698 70.7628 95.9035 69.7188C96.3532 68.6747 96.9717 67.7671 97.7587 66.9961C98.5619 66.2251 99.5016 65.6307 100.578 65.2131C101.654 64.7794 102.827 64.5625 104.096 64.5625C105.316 64.5625 106.465 64.7714 107.541 65.189C108.617 65.5906 109.525 66.201 110.264 67.0202L109.131 68.1526C108.441 67.4458 107.678 66.9399 106.842 66.6347C106.007 66.3134 105.108 66.1528 104.144 66.1528C103.132 66.1528 102.192 66.3295 101.325 66.6828C100.457 67.0202 99.7024 67.5101 99.0598 68.1526C98.4173 68.7791 97.9113 69.518 97.5419 70.3693C97.1885 71.2046 97.0118 72.1282 97.0118 73.1402C97.0118 74.1521 97.1885 75.0838 97.5419 75.9351C97.9113 76.7704 98.4173 77.5093 99.0598 78.1518C99.7024 78.7783 100.457 79.2682 101.325 79.6216C102.192 79.9589 103.132 80.1276 104.144 80.1276C105.108 80.1276 106.007 79.9669 106.842 79.6457C107.678 79.3244 108.441 78.8104 109.131 78.1036L110.264 79.2361C109.525 80.0553 108.617 80.6737 107.541 81.0914C106.465 81.509 105.308 81.7178 104.071 81.7178ZM121.085 81.7178C119.816 81.7178 118.635 81.509 117.543 81.0914C116.467 80.6577 115.527 80.0553 114.724 79.2843C113.937 78.4972 113.318 77.5896 112.868 76.5616C112.435 75.5175 112.218 74.377 112.218 73.1402C112.218 71.9033 112.435 70.7709 112.868 69.7428C113.318 68.6988 113.937 67.7912 114.724 67.0202C115.527 66.2331 116.467 65.6307 117.543 65.2131C118.619 64.7794 119.8 64.5625 121.085 64.5625C122.354 64.5625 123.526 64.7794 124.602 65.2131C125.679 65.6307 126.61 66.2251 127.397 66.9961C128.201 67.7671 128.819 68.6747 129.253 69.7188C129.702 70.7628 129.927 71.9033 129.927 73.1402C129.927 74.377 129.702 75.5175 129.253 76.5616C128.819 77.6057 128.201 78.5132 127.397 79.2843C126.61 80.0553 125.679 80.6577 124.602 81.0914C123.526 81.509 122.354 81.7178 121.085 81.7178ZM121.085 80.1276C122.097 80.1276 123.028 79.9589 123.88 79.6216C124.747 79.2682 125.494 78.7783 126.12 78.1518C126.763 77.5093 127.261 76.7704 127.614 75.9351C127.968 75.0838 128.144 74.1521 128.144 73.1402C128.144 72.1282 127.968 71.2046 127.614 70.3693C127.261 69.518 126.763 68.7791 126.12 68.1526C125.494 67.5101 124.747 67.0202 123.88 66.6828C123.028 66.3295 122.097 66.1528 121.085 66.1528C120.073 66.1528 119.133 66.3295 118.266 66.6828C117.398 67.0202 116.643 67.5101 116.001 68.1526C115.374 68.7791 114.876 69.518 114.507 70.3693C114.153 71.2046 113.977 72.1282 113.977 73.1402C113.977 74.1361 114.153 75.0597 114.507 75.911C114.876 76.7624 115.374 77.5093 116.001 78.1518C116.643 78.7783 117.398 79.2682 118.266 79.6216C119.133 79.9589 120.073 80.1276 121.085 80.1276ZM133.924 81.5732V64.7071H140.237C141.666 64.7071 142.895 64.94 143.923 65.4058C144.951 65.8556 145.738 66.5142 146.284 67.3816C146.846 68.2329 147.128 69.269 147.128 70.4898C147.128 71.6784 146.846 72.7065 146.284 73.5739C145.738 74.4252 144.951 75.0838 143.923 75.5496C142.895 75.9994 141.666 76.2243 140.237 76.2243H134.912L135.707 75.4051V81.5732H133.924ZM145.441 81.5732L141.104 75.4532H143.032L147.393 81.5732H145.441ZM135.707 75.5496L134.912 74.7063H140.188C141.875 74.7063 143.152 74.3369 144.019 73.598C144.903 72.8591 145.345 71.823 145.345 70.4898C145.345 69.1405 144.903 68.0964 144.019 67.3575C143.152 66.6186 141.875 66.2491 140.188 66.2491H134.912L135.707 65.4058V75.5496ZM151.336 81.5732V64.7071H157.649C159.078 64.7071 160.307 64.94 161.335 65.4058C162.363 65.8556 163.15 66.5142 163.696 67.3816C164.259 68.2329 164.54 69.269 164.54 70.4898C164.54 71.6784 164.259 72.7065 163.696 73.5739C163.15 74.4252 162.363 75.0838 161.335 75.5496C160.307 76.0154 159.078 76.2484 157.649 76.2484H152.324L153.119 75.4051V81.5732H151.336ZM153.119 75.5496L152.324 74.6822H157.6C159.287 74.6822 160.564 74.3208 161.431 73.598C162.315 72.8591 162.757 71.823 162.757 70.4898C162.757 69.1405 162.315 68.0964 161.431 67.3575C160.564 66.6186 159.287 66.2491 157.6 66.2491H152.324L153.119 65.4058V75.5496ZM176.003 81.7178C174.734 81.7178 173.554 81.509 172.461 81.0914C171.385 80.6577 170.445 80.0553 169.642 79.2843C168.855 78.4972 168.237 77.5896 167.787 76.5616C167.353 75.5175 167.136 74.377 167.136 73.1402C167.136 71.9033 167.353 70.7709 167.787 69.7428C168.237 68.6988 168.855 67.7912 169.642 67.0202C170.445 66.2331 171.385 65.6307 172.461 65.2131C173.537 64.7794 174.718 64.5625 176.003 64.5625C177.272 64.5625 178.445 64.7794 179.521 65.2131C180.597 65.6307 181.529 66.2251 182.316 66.9961C183.119 67.7671 183.737 68.6747 184.171 69.7188C184.621 70.7628 184.846 71.9033 184.846 73.1402C184.846 74.377 184.621 75.5175 184.171 76.5616C183.737 77.6057 183.119 78.5132 182.316 79.2843C181.529 80.0553 180.597 80.6577 179.521 81.0914C178.445 81.509 177.272 81.7178 176.003 81.7178ZM176.003 80.1276C177.015 80.1276 177.947 79.9589 178.798 79.6216C179.666 79.2682 180.412 78.7783 181.039 78.1518C181.681 77.5093 182.179 76.7704 182.533 75.9351C182.886 75.0838 183.063 74.1521 183.063 73.1402C183.063 72.1282 182.886 71.2046 182.533 70.3693C182.179 69.518 181.681 68.7791 181.039 68.1526C180.412 67.5101 179.666 67.0202 178.798 66.6828C177.947 66.3295 177.015 66.1528 176.003 66.1528C174.991 66.1528 174.051 66.3295 173.184 66.6828C172.317 67.0202 171.562 67.5101 170.919 68.1526C170.293 68.7791 169.795 69.518 169.425 70.3693C169.072 71.2046 168.895 72.1282 168.895 73.1402C168.895 74.1361 169.072 75.0597 169.425 75.911C169.795 76.7624 170.293 77.5093 170.919 78.1518C171.562 78.7783 172.317 79.2682 173.184 79.6216C174.051 79.9589 174.991 80.1276 176.003 80.1276ZM188.842 81.5732V64.7071H195.155C196.585 64.7071 197.813 64.94 198.842 65.4058C199.87 65.8556 200.657 66.5142 201.203 67.3816C201.765 68.2329 202.046 69.269 202.046 70.4898C202.046 71.6784 201.765 72.7065 201.203 73.5739C200.657 74.4252 199.87 75.0838 198.842 75.5496C197.813 75.9994 196.585 76.2243 195.155 76.2243H189.83L190.625 75.4051V81.5732H188.842ZM200.359 81.5732L196.022 75.4532H197.95L202.311 81.5732H200.359ZM190.625 75.5496L189.83 74.7063H195.107C196.793 74.7063 198.07 74.3369 198.938 73.598C199.821 72.8591 200.263 71.823 200.263 70.4898C200.263 69.1405 199.821 68.0964 198.938 67.3575C198.07 66.6186 196.793 66.2491 195.107 66.2491H189.83L190.625 65.4058V75.5496ZM203.556 81.5732L211.266 64.7071H213.025L220.735 81.5732H218.856L211.772 65.7432H212.495L205.411 81.5732H203.556ZM206.592 77.0676L207.122 75.6219H216.928L217.458 77.0676H206.592ZM225.955 81.5732V66.2491H220.028V64.7071H233.665V66.2491H227.738V81.5732H225.955ZM238.104 72.2487H247.019V73.7666H238.104V72.2487ZM238.297 80.0312H248.44V81.5732H236.514V64.7071H248.079V66.2491H238.297V80.0312ZM263.588 81.7178C262.335 81.7178 261.13 81.517 259.974 81.1154C258.833 80.6978 257.95 80.1677 257.323 79.5252L258.022 78.1518C258.616 78.7301 259.411 79.22 260.407 79.6216C261.419 80.0071 262.479 80.1999 263.588 80.1999C264.648 80.1999 265.507 80.0714 266.166 79.8143C266.84 79.5413 267.33 79.1799 267.636 78.7301C267.957 78.2803 268.118 77.7824 268.118 77.2362C268.118 76.5777 267.925 76.0476 267.539 75.646C267.17 75.2444 266.68 74.9312 266.069 74.7063C265.459 74.4654 264.784 74.2565 264.046 74.0799C263.307 73.9032 262.568 73.7184 261.829 73.5257C261.09 73.3169 260.407 73.0438 259.781 72.7065C259.17 72.3691 258.672 71.9274 258.287 71.3813C257.918 70.8191 257.733 70.0882 257.733 69.1887C257.733 68.3534 257.95 67.5904 258.383 66.8997C258.833 66.1929 259.516 65.6307 260.431 65.2131C261.347 64.7794 262.52 64.5625 263.949 64.5625C264.897 64.5625 265.837 64.6991 266.768 64.9721C267.7 65.2291 268.503 65.5906 269.178 66.0564L268.575 67.478C267.852 66.9961 267.081 66.6427 266.262 66.4178C265.459 66.1929 264.68 66.0805 263.925 66.0805C262.913 66.0805 262.078 66.217 261.419 66.4901C260.761 66.7632 260.271 67.1326 259.949 67.5984C259.644 68.0482 259.492 68.5622 259.492 69.1405C259.492 69.7991 259.676 70.3291 260.046 70.7307C260.431 71.1323 260.929 71.4455 261.54 71.6704C262.166 71.8953 262.849 72.0961 263.588 72.2728C264.327 72.4495 265.058 72.6422 265.78 72.851C266.519 73.0599 267.194 73.3329 267.804 73.6702C268.431 73.9915 268.929 74.4252 269.298 74.9714C269.684 75.5175 269.876 76.2323 269.876 77.1158C269.876 77.935 269.652 78.698 269.202 79.4047C268.752 80.0954 268.061 80.6577 267.13 81.0914C266.214 81.509 265.033 81.7178 263.588 81.7178ZM281.134 81.7178C279.865 81.7178 278.685 81.509 277.592 81.0914C276.516 80.6577 275.576 80.0553 274.773 79.2843C273.986 78.4972 273.368 77.5896 272.918 76.5616C272.484 75.5175 272.267 74.377 272.267 73.1402C272.267 71.9033 272.484 70.7709 272.918 69.7428C273.368 68.6988 273.986 67.7912 274.773 67.0202C275.576 66.2331 276.516 65.6307 277.592 65.2131C278.669 64.7794 279.849 64.5625 281.134 64.5625C282.403 64.5625 283.576 64.7794 284.652 65.2131C285.728 65.6307 286.66 66.2251 287.447 66.9961C288.25 67.7671 288.869 68.6747 289.302 69.7188C289.752 70.7628 289.977 71.9033 289.977 73.1402C289.977 74.377 289.752 75.5175 289.302 76.5616C288.869 77.6057 288.25 78.5132 287.447 79.2843C286.66 80.0553 285.728 80.6577 284.652 81.0914C283.576 81.509 282.403 81.7178 281.134 81.7178ZM281.134 80.1276C282.146 80.1276 283.078 79.9589 283.929 79.6216C284.797 79.2682 285.543 78.7783 286.17 78.1518C286.812 77.5093 287.31 76.7704 287.664 75.9351C288.017 75.0838 288.194 74.1521 288.194 73.1402C288.194 72.1282 288.017 71.2046 287.664 70.3693C287.31 69.518 286.812 68.7791 286.17 68.1526C285.543 67.5101 284.797 67.0202 283.929 66.6828C283.078 66.3295 282.146 66.1528 281.134 66.1528C280.122 66.1528 279.183 66.3295 278.315 66.6828C277.448 67.0202 276.693 67.5101 276.05 68.1526C275.424 68.7791 274.926 69.518 274.556 70.3693C274.203 71.2046 274.026 72.1282 274.026 73.1402C274.026 74.1361 274.203 75.0597 274.556 75.911C274.926 76.7624 275.424 77.5093 276.05 78.1518C276.693 78.7783 277.448 79.2682 278.315 79.6216C279.183 79.9589 280.122 80.1276 281.134 80.1276ZM293.973 81.5732V64.7071H295.756V80.0312H305.201V81.5732H293.973ZM314.651 81.7178C312.498 81.7178 310.803 81.0994 309.567 79.8625C308.33 78.6257 307.711 76.7945 307.711 74.369V64.7071H309.494V74.2967C309.494 76.2885 309.944 77.7583 310.844 78.706C311.743 79.6537 313.012 80.1276 314.651 80.1276C316.305 80.1276 317.582 79.6537 318.482 78.706C319.381 77.7583 319.831 76.2885 319.831 74.2967V64.7071H321.566V74.369C321.566 76.7945 320.947 78.6257 319.71 79.8625C318.49 81.0994 316.803 81.7178 314.651 81.7178ZM329.886 81.5732V66.2491H323.959V64.7071H337.596V66.2491H331.669V81.5732H329.886ZM340.445 81.5732V64.7071H342.228V81.5732H340.445ZM355.088 81.7178C353.819 81.7178 352.639 81.509 351.546 81.0914C350.47 80.6577 349.53 80.0553 348.727 79.2843C347.94 78.4972 347.322 77.5896 346.872 76.5616C346.438 75.5175 346.221 74.377 346.221 73.1402C346.221 71.9033 346.438 70.7709 346.872 69.7428C347.322 68.6988 347.94 67.7912 348.727 67.0202C349.53 66.2331 350.47 65.6307 351.546 65.2131C352.623 64.7794 353.803 64.5625 355.088 64.5625C356.357 64.5625 357.53 64.7794 358.606 65.2131C359.682 65.6307 360.614 66.2251 361.401 66.9961C362.204 67.7671 362.823 68.6747 363.256 69.7188C363.706 70.7628 363.931 71.9033 363.931 73.1402C363.931 74.377 363.706 75.5175 363.256 76.5616C362.823 77.6057 362.204 78.5132 361.401 79.2843C360.614 80.0553 359.682 80.6577 358.606 81.0914C357.53 81.509 356.357 81.7178 355.088 81.7178ZM355.088 80.1276C356.1 80.1276 357.032 79.9589 357.883 79.6216C358.751 79.2682 359.498 78.7783 360.124 78.1518C360.767 77.5093 361.264 76.7704 361.618 75.9351C361.971 75.0838 362.148 74.1521 362.148 73.1402C362.148 72.1282 361.971 71.2046 361.618 70.3693C361.264 69.518 360.767 68.7791 360.124 68.1526C359.498 67.5101 358.751 67.0202 357.883 66.6828C357.032 66.3295 356.1 66.1528 355.088 66.1528C354.076 66.1528 353.137 66.3295 352.269 66.6828C351.402 67.0202 350.647 67.5101 350.004 68.1526C349.378 68.7791 348.88 69.518 348.51 70.3693C348.157 71.2046 347.98 72.1282 347.98 73.1402C347.98 74.1361 348.157 75.0597 348.51 75.911C348.88 76.7624 349.378 77.5093 350.004 78.1518C350.647 78.7783 351.402 79.2682 352.269 79.6216C353.137 79.9589 354.076 80.1276 355.088 80.1276ZM367.927 81.5732V64.7071H369.397L381.035 79.3565H380.264V64.7071H382.023V81.5732H380.553L368.939 66.9238H369.71V81.5732H367.927ZM392.178 81.7178C390.925 81.7178 389.72 81.517 388.564 81.1154C387.423 80.6978 386.54 80.1677 385.913 79.5252L386.612 78.1518C387.206 78.7301 388.002 79.22 388.997 79.6216C390.009 80.0071 391.07 80.1999 392.178 80.1999C393.238 80.1999 394.097 80.0714 394.756 79.8143C395.431 79.5413 395.921 79.1799 396.226 78.7301C396.547 78.2803 396.708 77.7824 396.708 77.2362C396.708 76.5777 396.515 76.0476 396.129 75.646C395.76 75.2444 395.27 74.9312 394.66 74.7063C394.049 74.4654 393.375 74.2565 392.636 74.0799C391.897 73.9032 391.158 73.7184 390.419 73.5257C389.68 73.3169 388.997 73.0438 388.371 72.7065C387.761 72.3691 387.263 71.9274 386.877 71.3813C386.508 70.8191 386.323 70.0882 386.323 69.1887C386.323 68.3534 386.54 67.5904 386.974 66.8997C387.423 66.1929 388.106 65.6307 389.022 65.2131C389.937 64.7794 391.11 64.5625 392.539 64.5625C393.487 64.5625 394.427 64.6991 395.358 64.9721C396.29 65.2291 397.093 65.5906 397.768 66.0564L397.166 67.478C396.443 66.9961 395.672 66.6427 394.852 66.4178C394.049 66.1929 393.27 66.0805 392.515 66.0805C391.503 66.0805 390.668 66.217 390.009 66.4901C389.351 66.7632 388.861 67.1326 388.54 67.5984C388.234 68.0482 388.082 68.5622 388.082 69.1405C388.082 69.7991 388.267 70.3291 388.636 70.7307C389.022 71.1323 389.52 71.4455 390.13 71.6704C390.756 71.8953 391.439 72.0961 392.178 72.2728C392.917 72.4495 393.648 72.6422 394.371 72.851C395.109 73.0599 395.784 73.3329 396.394 73.6702C397.021 73.9915 397.519 74.4252 397.888 74.9714C398.274 75.5175 398.467 76.2323 398.467 77.1158C398.467 77.935 398.242 78.698 397.792 79.4047C397.342 80.0954 396.651 80.6577 395.72 81.0914C394.804 81.509 393.624 81.7178 392.178 81.7178Z" fill="white"/>
</svg>
